<?xml version="1.0" ?><!DOCTYPE svg  PUBLIC '-//W3C//DTD SVG 1.1//EN'  'http://www.w3.org/Graphics/SVG/1.1/DTD/svg11.dtd'><svg height="720pt" version="1.1" viewBox="0 0 720 720" width="720pt" xmlns="http://www.w3.org/2000/svg"><path d=" M 66.17 109.20 C 67.44 109.09 68.72 109.03 70.00 109.02 C 264.33 109.03 458.66 109.03 652.99 109.02 C 658.40 109.25 664.01 109.62 668.98 111.97 C 672.97 113.70 675.80 117.16 678.85 120.14 C 683.89 125.43 685.97 132.83 686.01 140.01 C 685.99 264.69 686.00 389.37 686.00 514.05 C 686.18 524.38 681.31 534.75 672.95 540.89 C 666.70 545.70 658.79 548.09 650.94 548.00 C 457.96 547.99 264.98 548.00 71.99 548.00 C 64.41 548.08 56.75 545.84 50.62 541.31 C 42.22 535.40 37.10 525.27 37.01 515.03 C 36.98 390.03 37.02 265.03 36.99 140.03 C 37.03 135.70 37.80 131.36 39.41 127.33 C 41.73 122.03 46.03 118.01 50.28 114.24 C 54.75 110.65 60.62 109.70 66.17 109.20 M 62.47 112.74 C 50.37 115.28 39.94 126.22 40.02 138.93 C 39.96 258.27 40.03 377.61 39.98 496.94 C 40.18 511.44 53.93 523.13 68.07 522.96 C 263.39 523.00 458.72 522.97 654.05 522.97 C 668.13 523.51 682.11 512.41 682.98 498.01 C 683.03 380.66 682.98 263.31 683.00 145.96 C 683.00 140.59 683.36 135.00 681.25 129.94 C 677.00 119.12 665.57 111.95 654.05 112.04 C 459.38 112.00 264.71 112.05 70.04 112.01 C 67.50 112.05 64.96 112.20 62.47 112.74 M 40.08 509.93 C 39.38 517.74 40.91 525.92 45.71 532.27 C 51.45 540.19 61.18 545.04 70.95 545.00 C 264.30 545.00 457.64 545.00 650.98 545.00 C 662.03 545.40 673.19 539.53 678.87 530.00 C 682.54 524.00 683.46 516.79 682.87 509.89 C 678.99 515.86 674.11 521.81 667.12 524.15 C 658.31 526.62 649.07 525.88 640.04 525.99 C 454.04 525.97 268.04 525.99 82.03 525.97 C 73.31 525.86 64.38 526.62 55.89 524.18 C 48.89 521.84 44.05 515.85 40.08 509.93 Z" fill="#0a1d26" opacity="1.00"/><path d=" M 62.47 112.74 C 64.96 112.20 67.50 112.05 70.04 112.01 C 264.71 112.05 459.38 112.00 654.05 112.04 C 665.57 111.95 677.00 119.12 681.25 129.94 C 683.36 135.00 683.00 140.59 683.00 145.96 C 682.98 263.31 683.03 380.66 682.98 498.01 C 682.11 512.41 668.13 523.51 654.05 522.97 C 458.72 522.97 263.39 523.00 68.07 522.96 C 53.93 523.13 40.18 511.44 39.98 496.94 C 40.03 377.61 39.96 258.27 40.02 138.93 C 39.94 126.22 50.37 115.28 62.47 112.74 M 646.33 125.48 C 643.67 127.26 644.14 131.77 647.10 132.99 C 650.13 134.69 654.47 131.33 653.26 127.96 C 652.65 124.93 648.73 123.51 646.33 125.48 M 66.31 126.34 C 63.12 126.96 62.16 131.48 64.44 133.62 C 66.57 135.87 71.02 134.82 71.66 131.69 C 72.72 128.54 69.45 125.29 66.31 126.34 M 633.40 128.45 C 630.75 130.15 631.04 134.76 634.07 135.86 C 636.75 137.59 640.47 135.06 640.46 132.02 C 640.60 128.60 636.12 126.15 633.40 128.45 M 77.26 131.28 C 74.51 132.67 74.48 137.33 77.23 138.74 C 79.83 140.79 84.12 138.26 83.77 135.02 C 84.13 131.82 79.84 129.15 77.26 131.28 M 657.35 133.47 C 654.75 135.23 655.11 139.69 658.07 140.87 C 661.04 142.90 665.50 139.25 664.23 135.96 C 663.69 132.89 659.73 131.55 657.35 133.47 M 644.33 137.47 C 641.73 139.27 642.08 143.67 645.05 144.91 C 648.09 146.84 652.37 143.35 651.33 139.97 C 650.64 137.00 646.74 135.43 644.33 137.47 M 57.34 138.33 C 54.16 138.95 53.14 143.45 55.42 145.60 C 57.75 148.10 62.77 146.54 62.78 142.95 C 63.27 139.98 60.17 137.44 57.34 138.33 M 68.27 140.22 C 65.51 141.64 65.47 146.35 68.27 147.75 C 70.90 149.82 75.05 147.17 74.77 144.00 C 75.09 140.83 70.88 138.20 68.27 140.22 M 653.39 144.47 C 650.72 146.17 651.08 150.68 654.01 151.93 C 656.37 153.37 659.69 151.67 660.27 149.06 C 661.49 145.36 656.41 141.85 653.39 144.47 M 61.37 150.45 C 59.08 151.36 57.50 154.63 59.28 156.73 C 60.70 159.56 65.43 159.48 66.81 156.65 C 69.15 153.32 64.97 148.85 61.37 150.45 M 343.25 181.27 C 340.37 182.06 338.76 185.07 339.01 187.94 C 338.94 205.25 339.07 222.57 338.96 239.89 C 336.73 239.98 334.47 239.92 332.27 240.36 C 329.19 241.28 327.98 245.53 330.01 248.00 C 332.09 250.76 335.99 249.75 338.97 250.12 C 339.13 253.86 338.58 257.73 339.50 261.40 C 341.25 266.08 348.68 266.13 350.47 261.45 C 351.44 257.74 350.86 253.83 351.03 250.05 C 354.15 249.88 357.47 250.44 360.46 249.34 C 364.07 247.54 363.65 241.61 359.81 240.37 C 356.92 239.80 353.95 240.01 351.03 239.94 C 350.89 222.28 351.14 204.61 350.93 186.96 C 351.12 183.07 346.90 180.00 343.25 181.27 M 380.52 184.57 C 379.55 188.23 380.13 192.11 379.99 195.87 C 377.73 195.97 375.45 195.92 373.24 196.38 C 370.17 197.32 368.99 201.56 371.03 204.01 C 373.10 206.77 377.00 205.75 379.97 206.12 C 380.07 223.42 379.94 240.72 380.01 258.02 C 379.76 260.87 381.33 263.88 384.19 264.72 C 387.84 266.03 392.13 262.95 391.93 259.04 C 392.16 241.38 391.86 223.70 392.05 206.04 C 394.96 205.98 397.91 206.21 400.79 205.64 C 404.68 204.40 405.07 198.37 401.38 196.61 C 398.39 195.60 395.13 196.10 392.03 195.95 C 391.86 192.16 392.44 188.24 391.47 184.54 C 389.66 179.90 382.31 179.93 380.52 184.57 M 421.07 186.94 C 420.85 204.58 421.12 222.24 420.96 239.89 C 418.71 239.98 416.43 239.91 414.23 240.37 C 411.19 241.33 410.00 245.51 412.00 247.97 C 414.05 250.78 417.99 249.74 420.98 250.13 C 421.13 253.88 420.56 257.75 421.52 261.42 C 423.28 266.12 430.78 266.10 432.50 261.38 C 433.41 257.69 432.87 253.82 433.03 250.05 C 435.93 249.99 438.88 250.20 441.76 249.65 C 445.65 248.44 446.09 242.47 442.46 240.66 C 439.47 239.56 436.16 240.12 433.04 239.95 C 432.93 222.65 433.06 205.34 432.99 188.04 C 433.24 185.17 431.70 182.10 428.80 181.28 C 425.15 179.99 420.89 183.04 421.07 186.94 M 468.59 188.57 C 466.56 191.44 467.10 195.15 466.94 198.46 C 469.65 195.89 473.09 193.90 476.93 194.04 C 524.95 193.94 572.97 194.04 620.98 193.99 C 625.18 193.67 629.10 195.57 632.06 198.45 C 632.00 196.26 632.09 194.07 631.77 191.91 C 630.97 187.39 626.60 183.92 622.03 184.03 C 574.00 183.96 525.97 184.03 477.94 184.00 C 474.29 183.76 470.55 185.43 468.59 188.57 M 81.37 193.25 C 77.56 196.00 76.40 201.02 77.24 205.46 C 76.47 209.60 77.82 214.18 81.31 216.72 C 86.06 220.35 92.42 218.60 97.93 219.00 C 103.68 218.60 110.45 220.48 115.22 216.29 C 118.60 213.53 119.40 208.93 118.82 204.81 C 120.16 198.90 116.24 192.24 110.14 191.25 C 104.80 190.69 99.41 191.14 94.05 190.99 C 89.78 191.07 84.94 190.34 81.37 193.25 M 145.36 193.25 C 141.56 196.00 140.39 201.01 141.24 205.44 C 139.76 211.64 144.38 218.47 150.83 218.89 C 158.26 219.09 165.73 219.08 173.17 218.89 C 179.92 218.45 184.29 211.22 182.82 204.87 C 184.08 199.21 180.67 192.86 174.94 191.42 C 170.01 190.57 164.97 191.17 160.00 191.00 C 155.11 191.23 149.51 189.96 145.36 193.25 M 202.24 205.50 C 200.76 211.72 205.47 218.54 211.93 218.89 C 219.29 219.08 226.68 219.08 234.05 218.90 C 240.88 218.54 245.31 211.22 243.82 204.81 C 245.29 198.54 240.68 191.47 234.09 191.12 C 226.69 190.90 219.26 190.92 211.86 191.11 C 204.97 191.54 200.57 199.06 202.24 205.50 M 267.37 193.25 C 263.56 196.00 262.39 201.01 263.24 205.45 C 261.62 212.07 267.06 219.18 273.93 218.97 C 281.32 218.92 288.74 219.28 296.12 218.77 C 302.46 217.75 306.15 210.86 304.82 204.82 C 306.17 198.90 302.24 192.23 296.12 191.25 C 290.77 190.69 285.38 191.14 280.02 190.99 C 275.76 191.06 270.93 190.35 267.37 193.25 M 473.46 197.64 C 469.69 199.04 466.93 202.85 467.04 206.91 C 466.97 220.64 466.97 234.38 467.04 248.11 C 466.87 253.41 471.68 258.15 476.97 257.97 C 525.35 258.02 573.73 258.02 622.10 257.97 C 627.41 258.11 632.19 253.33 631.97 248.01 C 632.02 234.32 632.02 220.62 631.97 206.94 C 632.17 201.60 627.34 196.87 622.04 197.03 C 574.37 196.94 526.69 197.05 479.02 196.98 C 477.15 197.02 475.22 196.97 473.46 197.64 M 77.09 246.01 C 77.10 248.38 76.96 250.76 77.24 253.11 C 78.07 258.13 82.87 262.07 87.95 261.97 C 94.64 262.03 101.33 262.03 108.01 261.97 C 112.10 262.03 116.09 259.56 117.85 255.86 C 119.34 253.15 118.90 249.95 118.86 246.99 C 119.73 242.26 117.15 237.18 112.81 235.12 C 109.78 233.61 106.27 234.07 103.00 233.98 C 97.62 234.10 92.23 233.82 86.85 234.11 C 81.08 234.50 76.32 240.26 77.09 246.01 M 141.09 245.93 C 141.10 248.34 140.95 250.77 141.25 253.17 C 142.11 258.18 146.91 262.08 151.99 261.97 C 158.67 262.03 165.35 262.03 172.03 261.97 C 176.15 262.02 180.14 259.51 181.88 255.79 C 183.34 253.08 182.89 249.91 182.86 246.97 C 183.83 241.82 180.62 236.31 175.66 234.63 C 167.50 233.33 159.09 234.18 150.84 234.11 C 145.10 234.51 140.37 240.21 141.09 245.93 M 202.09 245.97 C 202.10 248.36 201.95 250.77 202.25 253.15 C 203.10 258.17 207.92 262.09 213.00 261.97 C 219.66 262.03 226.33 262.03 233.00 261.97 C 237.12 262.03 241.13 259.53 242.88 255.80 C 244.34 253.10 243.89 249.93 243.86 246.99 C 244.85 241.80 241.59 236.26 236.58 234.60 C 228.45 233.37 220.08 234.17 211.87 234.11 C 206.10 234.49 201.34 240.23 202.09 245.97 M 263.09 245.99 C 263.10 248.38 262.95 250.79 263.26 253.18 C 264.12 258.19 268.94 262.09 274.01 261.97 C 280.68 262.03 287.36 262.03 294.03 261.97 C 298.14 262.02 302.12 259.52 303.88 255.81 C 305.33 253.10 304.89 249.93 304.86 246.98 C 305.84 241.80 302.60 236.28 297.61 234.62 C 289.48 233.35 281.10 234.18 272.87 234.11 C 267.10 234.49 262.33 240.24 263.09 245.99 M 82.09 287.72 C 81.90 362.53 82.00 437.35 82.04 512.17 C 268.01 512.20 453.99 512.19 639.96 512.17 C 640.00 437.35 640.10 362.53 639.91 287.72 C 453.97 287.72 268.03 287.71 82.09 287.72 Z" fill="#2c5871" opacity="1.00"/><path d=" M 646.33 125.48 C 648.73 123.51 652.65 124.93 653.26 127.96 C 654.47 131.33 650.13 134.69 647.10 132.99 C 644.14 131.77 643.67 127.26 646.33 125.48 Z" fill="#143c4f" opacity="1.00"/><path d=" M 66.31 126.34 C 69.45 125.29 72.72 128.54 71.66 131.69 C 71.02 134.82 66.57 135.87 64.44 133.62 C 62.16 131.48 63.12 126.96 66.31 126.34 Z" fill="#143c4f" opacity="1.00"/><path d=" M 633.40 128.45 C 636.12 126.15 640.60 128.60 640.46 132.02 C 640.47 135.06 636.75 137.59 634.07 135.86 C 631.04 134.76 630.75 130.15 633.40 128.45 Z" fill="#143c4f" opacity="1.00"/><path d=" M 77.26 131.28 C 79.84 129.15 84.13 131.82 83.77 135.02 C 84.12 138.26 79.83 140.79 77.23 138.74 C 74.48 137.33 74.51 132.67 77.26 131.28 Z" fill="#143c4f" opacity="1.00"/><path d=" M 657.35 133.47 C 659.73 131.55 663.69 132.89 664.23 135.96 C 665.50 139.25 661.04 142.90 658.07 140.87 C 655.11 139.69 654.75 135.23 657.35 133.47 Z" fill="#143c4f" opacity="1.00"/><path d=" M 644.33 137.47 C 646.74 135.43 650.64 137.00 651.33 139.97 C 652.37 143.35 648.09 146.84 645.05 144.91 C 642.08 143.67 641.73 139.27 644.33 137.47 Z" fill="#143c4f" opacity="1.00"/><path d=" M 57.34 138.33 C 60.17 137.44 63.27 139.98 62.78 142.95 C 62.77 146.54 57.75 148.10 55.42 145.60 C 53.14 143.45 54.16 138.95 57.34 138.33 Z" fill="#143c4f" opacity="1.00"/><path d=" M 68.27 140.22 C 70.88 138.20 75.09 140.83 74.77 144.00 C 75.05 147.17 70.90 149.82 68.27 147.75 C 65.47 146.35 65.51 141.64 68.27 140.22 Z" fill="#143c4f" opacity="1.00"/><path d=" M 653.39 144.47 C 656.41 141.85 661.49 145.36 660.27 149.06 C 659.69 151.67 656.37 153.37 654.01 151.93 C 651.08 150.68 650.72 146.17 653.39 144.47 Z" fill="#143c4f" opacity="1.00"/><path d=" M 61.37 150.45 C 64.97 148.85 69.15 153.32 66.81 156.65 C 65.43 159.48 60.70 159.56 59.28 156.73 C 57.50 154.63 59.08 151.36 61.37 150.45 Z" fill="#143c4f" opacity="1.00"/><path d=" M 343.25 181.27 C 346.90 180.00 351.12 183.07 350.93 186.96 C 351.14 204.61 350.89 222.28 351.03 239.94 C 353.95 240.01 356.92 239.80 359.81 240.37 C 363.65 241.61 364.07 247.54 360.46 249.34 C 357.47 250.44 354.15 249.88 351.03 250.05 C 350.86 253.83 351.44 257.74 350.47 261.45 C 348.68 266.13 341.25 266.08 339.50 261.40 C 338.58 257.73 339.13 253.86 338.97 250.12 C 335.99 249.75 332.09 250.76 330.01 248.00 C 327.98 245.53 329.19 241.28 332.27 240.36 C 334.47 239.92 336.73 239.98 338.96 239.89 C 339.07 222.57 338.94 205.25 339.01 187.94 C 338.76 185.07 340.37 182.06 343.25 181.27 Z" fill="#143c4f" opacity="1.00"/><path d=" M 380.52 184.57 C 382.31 179.93 389.66 179.90 391.47 184.54 C 392.44 188.24 391.86 192.16 392.03 195.95 C 395.13 196.10 398.39 195.60 401.38 196.61 C 405.07 198.37 404.68 204.40 400.79 205.64 C 397.91 206.21 394.96 205.98 392.05 206.04 C 391.86 223.70 392.16 241.38 391.93 259.04 C 392.13 262.95 387.84 266.03 384.19 264.72 C 381.33 263.88 379.76 260.87 380.01 258.02 C 379.94 240.72 380.07 223.42 379.97 206.12 C 377.00 205.75 373.10 206.77 371.03 204.01 C 368.99 201.56 370.17 197.32 373.24 196.38 C 375.45 195.92 377.73 195.97 379.99 195.87 C 380.13 192.11 379.55 188.23 380.52 184.57 Z" fill="#143c4f" opacity="1.00"/><path d=" M 421.07 186.94 C 420.89 183.04 425.15 179.99 428.80 181.28 C 431.70 182.10 433.24 185.17 432.99 188.04 C 433.06 205.34 432.93 222.65 433.04 239.95 C 436.16 240.12 439.47 239.56 442.46 240.66 C 446.09 242.47 445.65 248.44 441.76 249.65 C 438.88 250.20 435.93 249.99 433.03 250.05 C 432.87 253.82 433.41 257.69 432.50 261.38 C 430.78 266.10 423.28 266.12 421.52 261.42 C 420.56 257.75 421.13 253.88 420.98 250.13 C 417.99 249.74 414.05 250.78 412.00 247.97 C 410.00 245.51 411.19 241.33 414.23 240.37 C 416.43 239.91 418.71 239.98 420.96 239.89 C 421.12 222.24 420.85 204.58 421.07 186.94 Z" fill="#143c4f" opacity="1.00"/><path d=" M 468.59 188.57 C 470.55 185.43 474.29 183.76 477.94 184.00 C 525.97 184.03 574.00 183.96 622.03 184.03 C 626.60 183.92 630.97 187.39 631.77 191.91 C 632.09 194.07 632.00 196.26 632.06 198.45 C 629.10 195.57 625.18 193.67 620.98 193.99 C 572.97 194.04 524.95 193.94 476.93 194.04 C 473.09 193.90 469.65 195.89 466.94 198.46 C 467.10 195.15 466.56 191.44 468.59 188.57 Z" fill="#e9d458" opacity="1.00"/><path d=" M 81.37 193.25 C 84.94 190.34 89.78 191.07 94.05 190.99 C 99.41 191.14 104.80 190.69 110.14 191.25 C 116.24 192.24 120.16 198.90 118.82 204.81 C 117.26 208.96 113.73 212.70 109.06 212.88 C 101.68 213.11 94.28 213.12 86.90 212.87 C 82.43 212.72 79.16 209.18 77.24 205.46 C 76.40 201.02 77.56 196.00 81.37 193.25 Z" fill="#a7daeb" opacity="1.00"/><path d=" M 145.36 193.25 C 149.51 189.96 155.11 191.23 160.00 191.00 C 164.97 191.17 170.01 190.57 174.94 191.42 C 180.67 192.86 184.08 199.21 182.82 204.87 C 181.23 208.97 177.72 212.70 173.08 212.87 C 165.69 213.11 158.28 213.12 150.90 212.87 C 146.43 212.72 143.15 209.17 141.24 205.44 C 140.39 201.01 141.56 196.00 145.36 193.25 Z" fill="#a7daeb" opacity="1.00"/><path d=" M 202.24 205.50 C 200.57 199.06 204.97 191.54 211.86 191.11 C 219.26 190.92 226.69 190.90 234.09 191.12 C 240.68 191.47 245.29 198.54 243.82 204.81 C 242.26 208.93 238.76 212.68 234.12 212.87 C 226.73 213.12 219.32 213.12 211.93 212.87 C 207.46 212.74 204.19 209.20 202.24 205.50 Z" fill="#a7daeb" opacity="1.00"/><path d=" M 267.37 193.25 C 270.93 190.35 275.76 191.06 280.02 190.99 C 285.38 191.14 290.77 190.69 296.12 191.25 C 302.24 192.23 306.17 198.90 304.82 204.82 C 303.26 208.97 299.72 212.70 295.06 212.87 C 287.66 213.11 280.23 213.12 272.84 212.86 C 268.39 212.69 265.14 209.16 263.24 205.45 C 262.39 201.01 263.56 196.00 267.37 193.25 Z" fill="#a7daeb" opacity="1.00"/><path d=" M 473.46 197.64 C 475.22 196.97 477.15 197.02 479.02 196.98 C 526.69 197.05 574.37 196.94 622.04 197.03 C 627.34 196.87 632.17 201.60 631.97 206.94 C 632.02 220.62 632.02 234.32 631.97 248.01 C 632.19 253.33 627.41 258.11 622.10 257.97 C 573.73 258.02 525.35 258.02 476.97 257.97 C 471.68 258.15 466.87 253.41 467.04 248.11 C 466.97 234.38 466.97 220.64 467.04 206.91 C 466.93 202.85 469.69 199.04 473.46 197.64 Z" fill="#f0e397" opacity="1.00"/><path d=" M 109.06 212.88 C 113.73 212.70 117.26 208.96 118.82 204.81 C 119.40 208.93 118.60 213.53 115.22 216.29 C 110.45 220.48 103.68 218.60 97.93 219.00 C 92.42 218.60 86.06 220.35 81.31 216.72 C 77.82 214.18 76.47 209.60 77.24 205.46 C 79.16 209.18 82.43 212.72 86.90 212.87 C 94.28 213.12 101.68 213.11 109.06 212.88 Z" fill="#54bfe2" opacity="1.00"/><path d=" M 173.08 212.87 C 177.72 212.70 181.23 208.97 182.82 204.87 C 184.29 211.22 179.92 218.45 173.17 218.89 C 165.73 219.08 158.26 219.09 150.83 218.89 C 144.38 218.47 139.76 211.64 141.24 205.44 C 143.15 209.17 146.43 212.72 150.90 212.87 C 158.28 213.12 165.69 213.11 173.08 212.87 Z" fill="#54bfe2" opacity="1.00"/><path d=" M 234.12 212.87 C 238.76 212.68 242.26 208.93 243.82 204.81 C 245.31 211.22 240.88 218.54 234.05 218.90 C 226.68 219.08 219.29 219.08 211.93 218.89 C 205.47 218.54 200.76 211.72 202.24 205.50 C 204.19 209.20 207.46 212.74 211.93 212.87 C 219.32 213.12 226.73 213.12 234.12 212.87 Z" fill="#54bfe2" opacity="1.00"/><path d=" M 295.06 212.87 C 299.72 212.70 303.26 208.97 304.82 204.82 C 306.15 210.86 302.46 217.75 296.12 218.77 C 288.74 219.28 281.32 218.92 273.93 218.97 C 267.06 219.18 261.62 212.07 263.24 205.45 C 265.14 209.16 268.39 212.69 272.84 212.86 C 280.23 213.12 287.66 213.11 295.06 212.87 Z" fill="#54bfe2" opacity="1.00"/><path d=" M 77.09 246.01 C 76.32 240.26 81.08 234.50 86.85 234.11 C 92.23 233.82 97.62 234.10 103.00 233.98 C 106.27 234.07 109.78 233.61 112.81 235.12 C 117.15 237.18 119.73 242.26 118.86 246.99 C 117.76 250.70 115.36 254.36 111.40 255.40 C 106.03 256.59 100.46 255.81 95.00 256.04 C 90.42 255.91 85.22 256.69 81.33 253.71 C 78.77 251.95 77.78 248.88 77.09 246.01 Z" fill="#fc611f" opacity="1.00"/><path d=" M 141.09 245.93 C 140.37 240.21 145.10 234.51 150.84 234.11 C 159.09 234.18 167.50 233.33 175.66 234.63 C 180.62 236.31 183.83 241.82 182.86 246.97 C 181.73 250.93 178.99 254.78 174.71 255.57 C 169.18 256.48 163.54 255.83 157.97 256.05 C 153.72 255.95 148.93 256.51 145.36 253.73 C 142.78 251.94 141.77 248.83 141.09 245.93 Z" fill="#fc611f" opacity="1.00"/><path d=" M 202.09 245.97 C 201.34 240.23 206.10 234.49 211.87 234.11 C 220.08 234.17 228.45 233.37 236.58 234.60 C 241.59 236.26 244.85 241.80 243.86 246.99 C 242.74 250.97 239.97 254.81 235.67 255.59 C 230.17 256.48 224.56 255.83 219.01 256.04 C 214.75 255.96 209.94 256.52 206.35 253.73 C 203.77 251.97 202.77 248.86 202.09 245.97 Z" fill="#fc611f" opacity="1.00"/><path d=" M 263.09 245.99 C 262.33 240.24 267.10 234.49 272.87 234.11 C 281.10 234.18 289.48 233.35 297.61 234.62 C 302.60 236.28 305.84 241.80 304.86 246.98 C 303.71 250.95 300.96 254.83 296.64 255.59 C 291.14 256.46 285.56 255.84 280.02 256.04 C 275.74 255.95 270.90 256.51 267.29 253.70 C 264.74 251.94 263.76 248.86 263.09 245.99 Z" fill="#fc611f" opacity="1.00"/><path d=" M 77.09 246.01 C 77.78 248.88 78.77 251.95 81.33 253.71 C 85.22 256.69 90.42 255.91 95.00 256.04 C 100.46 255.81 106.03 256.59 111.40 255.40 C 115.36 254.36 117.76 250.70 118.86 246.99 C 118.90 249.95 119.34 253.15 117.85 255.86 C 116.09 259.56 112.10 262.03 108.01 261.97 C 101.33 262.03 94.64 262.03 87.95 261.97 C 82.87 262.07 78.07 258.13 77.24 253.11 C 76.96 250.76 77.10 248.38 77.09 246.01 Z" fill="#de4e11" opacity="1.00"/><path d=" M 141.09 245.93 C 141.77 248.83 142.78 251.94 145.36 253.73 C 148.93 256.51 153.72 255.95 157.97 256.05 C 163.54 255.83 169.18 256.48 174.71 255.57 C 178.99 254.78 181.73 250.93 182.86 246.97 C 182.89 249.91 183.34 253.08 181.88 255.79 C 180.14 259.51 176.15 262.02 172.03 261.97 C 165.35 262.03 158.67 262.03 151.99 261.97 C 146.91 262.08 142.11 258.18 141.25 253.17 C 140.95 250.77 141.10 248.34 141.09 245.93 Z" fill="#de4e11" opacity="1.00"/><path d=" M 202.09 245.97 C 202.77 248.86 203.77 251.97 206.35 253.73 C 209.94 256.52 214.75 255.96 219.01 256.04 C 224.56 255.83 230.17 256.48 235.67 255.59 C 239.97 254.81 242.74 250.97 243.86 246.99 C 243.89 249.93 244.34 253.10 242.88 255.80 C 241.13 259.53 237.12 262.03 233.00 261.97 C 226.33 262.03 219.66 262.03 213.00 261.97 C 207.92 262.09 203.10 258.17 202.25 253.15 C 201.95 250.77 202.10 248.36 202.09 245.97 Z" fill="#de4e11" opacity="1.00"/><path d=" M 263.09 245.99 C 263.76 248.86 264.74 251.94 267.29 253.70 C 270.90 256.51 275.74 255.95 280.02 256.04 C 285.56 255.84 291.14 256.46 296.64 255.59 C 300.96 254.83 303.71 250.95 304.86 246.98 C 304.89 249.93 305.33 253.10 303.88 255.81 C 302.12 259.52 298.14 262.02 294.03 261.97 C 287.36 262.03 280.68 262.03 274.01 261.97 C 268.94 262.09 264.12 258.19 263.26 253.18 C 262.95 250.79 263.10 248.38 263.09 245.99 Z" fill="#de4e11" opacity="1.00"/><path d=" M 82.09 287.72 C 268.03 287.71 453.97 287.72 639.91 287.72 C 640.10 362.53 640.00 437.35 639.96 512.17 C 453.99 512.19 268.01 512.20 82.04 512.17 C 82.00 437.35 81.90 362.53 82.09 287.72 M 85.04 291.12 C 84.97 363.73 84.97 436.34 85.04 508.95 C 89.32 509.01 93.60 509.00 97.88 508.87 C 165.91 509.12 233.95 508.89 301.99 508.98 C 409.71 508.90 517.43 509.12 625.14 508.86 C 629.08 509.00 633.03 509.02 636.98 508.93 C 637.01 436.33 637.04 363.73 636.96 291.12 C 452.99 291.12 269.01 291.12 85.04 291.12 Z" fill="#0a1d26" opacity="1.00"/><path d=" M 85.04 291.12 C 269.01 291.12 452.99 291.12 636.96 291.12 C 637.04 363.73 637.01 436.33 636.98 508.93 C 633.03 509.02 629.08 509.00 625.14 508.86 C 625.08 506.60 625.03 504.34 625.01 502.08 C 624.98 493.41 625.01 484.73 625.00 476.06 C 625.01 427.37 624.99 378.69 625.00 330.00 C 624.97 323.02 625.16 316.05 624.88 309.08 C 508.26 308.89 391.63 309.06 275.01 309.00 C 216.04 309.08 157.05 308.85 98.08 309.11 C 97.88 316.07 98.03 323.04 98.00 330.00 C 98.00 378.47 98.00 426.95 98.00 475.42 C 97.99 484.31 98.01 493.19 97.99 502.08 C 97.97 504.34 97.92 506.60 97.88 508.87 C 93.60 509.00 89.32 509.01 85.04 508.95 C 84.97 436.34 84.97 363.73 85.04 291.12 Z" fill="#214356" opacity="1.00"/><path d=" M 98.08 309.11 C 157.05 308.85 216.04 309.08 275.01 309.00 C 391.63 309.06 508.26 308.89 624.88 309.08 C 625.16 316.05 624.97 323.02 625.00 330.00 C 619.33 330.00 613.67 330.00 608.00 330.00 C 594.33 330.00 580.67 330.00 567.00 330.00 C 560.00 330.00 553.00 330.00 546.00 330.00 C 532.33 330.00 518.67 329.99 505.00 330.00 C 496.33 330.00 487.67 330.00 479.00 330.00 C 476.33 329.99 473.66 329.99 471.00 330.00 C 462.33 330.00 453.67 330.00 445.00 330.00 C 431.33 330.00 417.67 329.99 404.00 330.00 C 396.00 330.00 388.00 330.00 380.00 330.00 C 366.33 330.00 352.67 330.00 339.00 330.00 C 330.33 330.00 321.67 330.00 313.00 329.99 C 310.33 329.99 307.66 329.99 305.00 329.99 C 295.67 330.00 286.33 330.00 277.00 330.00 C 263.33 329.99 249.67 330.00 236.00 330.00 C 229.00 330.00 222.00 330.00 215.00 330.00 C 201.33 329.99 187.67 330.00 174.00 330.00 C 167.33 330.00 160.67 330.00 154.00 330.00 C 140.33 330.00 126.67 330.00 113.00 330.00 C 108.00 330.00 103.00 330.00 98.00 330.00 C 98.03 323.04 97.88 316.07 98.08 309.11 Z" fill="#10303f" opacity="1.00"/><path d=" M 98.00 330.00 C 103.00 330.00 108.00 330.00 113.00 330.00 C 113.01 353.38 112.98 376.77 113.01 400.15 C 112.75 403.01 114.87 405.44 117.35 406.55 C 121.28 408.48 125.77 407.93 130.00 408.01 C 130.00 431.01 130.00 454.00 130.00 477.00 C 119.34 476.56 108.44 478.20 98.00 475.42 C 98.00 426.95 98.00 378.47 98.00 330.00 Z" fill="#ffffff" opacity="1.00"/><path d=" M 113.00 330.00 C 126.67 330.00 140.33 330.00 154.00 330.00 C 153.99 353.37 154.02 376.75 153.99 400.12 C 154.23 402.76 152.47 405.07 150.23 406.24 C 146.53 408.37 142.10 407.97 138.00 408.03 C 138.00 431.02 138.00 454.01 138.00 477.00 C 138.00 485.38 137.99 493.75 138.01 502.13 C 155.34 502.13 172.66 502.14 189.99 502.13 C 190.01 493.75 190.00 485.38 190.00 477.00 C 190.00 454.01 190.00 431.02 190.00 408.03 C 185.23 408.02 179.75 408.42 175.97 404.93 C 174.18 403.49 173.89 401.12 173.98 398.99 C 174.03 375.99 173.99 352.99 174.00 330.00 C 187.67 330.00 201.33 329.99 215.00 330.00 C 214.99 353.35 215.02 376.71 214.99 400.07 C 215.23 402.70 213.52 405.05 211.26 406.23 C 207.24 408.53 202.43 407.93 198.00 408.01 C 198.00 431.01 198.00 454.00 198.00 477.00 C 198.00 485.38 197.99 493.75 198.01 502.13 C 216.00 502.13 234.00 502.14 251.99 502.13 C 252.01 493.75 252.00 485.38 252.00 477.00 C 252.00 454.01 252.00 431.02 252.00 408.03 C 247.07 408.04 241.22 408.43 237.53 404.48 C 236.04 403.07 235.97 400.92 235.98 399.01 C 236.03 376.01 235.99 353.00 236.00 330.00 C 249.67 330.00 263.33 329.99 277.00 330.00 C 276.99 353.35 277.02 376.70 276.99 400.05 C 277.20 402.45 275.83 404.66 273.82 405.88 C 269.74 408.56 264.63 407.94 260.00 408.01 C 260.00 431.01 260.00 454.00 260.00 477.00 C 260.00 485.38 259.99 493.75 260.01 502.13 C 275.00 502.13 290.00 502.13 304.99 502.13 C 305.01 493.75 305.00 485.38 305.00 477.00 C 305.00 428.00 305.00 379.00 305.00 329.99 C 307.66 329.99 310.33 329.99 313.00 329.99 C 313.00 379.00 313.00 428.00 313.00 477.00 C 313.00 485.38 312.99 493.75 313.01 502.13 C 327.30 502.15 341.58 502.10 355.88 502.13 C 355.89 493.75 355.88 485.37 355.88 477.00 C 355.88 454.18 355.88 431.36 355.88 408.55 C 350.74 408.53 344.71 409.11 340.71 405.20 C 338.94 403.64 338.99 401.14 338.97 399.00 C 339.03 376.00 338.98 353.00 339.00 330.00 C 352.67 330.00 366.33 330.00 380.00 330.00 C 379.97 353.71 380.06 377.43 379.96 401.14 C 380.08 404.00 377.74 406.18 375.30 407.22 C 371.87 408.79 368.02 408.51 364.36 408.57 C 364.35 431.38 364.36 454.19 364.35 477.00 C 364.35 485.37 364.35 493.75 364.36 502.13 C 383.20 502.14 402.04 502.13 420.88 502.13 C 420.89 493.75 420.88 485.38 420.88 477.00 C 420.88 454.18 420.88 431.36 420.88 408.55 C 415.96 408.51 410.38 409.08 406.30 405.74 C 404.48 404.44 403.89 402.18 404.00 400.06 C 404.00 376.71 404.00 353.35 404.00 330.00 C 417.67 329.99 431.33 330.00 445.00 330.00 C 444.97 353.71 445.06 377.42 444.96 401.12 C 445.08 403.72 443.13 405.82 440.94 406.91 C 437.38 408.80 433.24 408.52 429.36 408.57 C 429.35 431.38 429.36 454.19 429.35 477.00 C 429.35 485.37 429.35 493.75 429.36 502.12 C 443.23 502.14 457.11 502.13 470.99 502.13 C 471.01 493.75 471.00 485.38 471.00 477.01 C 471.00 428.00 471.00 379.00 471.00 330.00 C 473.66 329.99 476.33 329.99 479.00 330.00 C 479.00 379.00 479.00 428.00 479.00 477.00 C 479.00 485.38 478.99 493.75 479.01 502.13 C 493.29 502.14 507.58 502.13 521.88 502.13 C 521.89 493.75 521.87 485.38 521.88 477.00 C 521.88 454.18 521.88 431.36 521.88 408.55 C 516.97 408.51 511.41 409.08 507.33 405.77 C 505.49 404.46 504.89 402.18 505.00 400.04 C 505.00 376.69 505.00 353.34 505.00 330.00 C 518.67 329.99 532.33 330.00 546.00 330.00 C 545.97 353.69 546.05 377.38 545.96 401.07 C 546.10 403.68 544.15 405.82 541.93 406.91 C 538.38 408.80 534.24 408.52 530.36 408.57 C 530.35 431.38 530.36 454.19 530.35 477.00 C 530.35 485.38 530.35 493.75 530.36 502.13 C 548.20 502.16 566.04 502.09 583.88 502.14 C 583.89 493.76 583.87 485.38 583.88 477.00 C 583.88 454.18 583.88 431.36 583.88 408.55 C 578.74 408.53 572.72 409.11 568.71 405.20 C 566.95 403.65 566.99 401.17 566.97 399.04 C 567.03 376.03 566.99 353.01 567.00 330.00 C 580.67 330.00 594.33 330.00 608.00 330.00 C 607.97 353.70 608.06 377.41 607.96 401.11 C 608.08 403.71 606.14 405.82 603.95 406.90 C 600.39 408.80 596.24 408.52 592.36 408.57 C 592.35 431.38 592.36 454.19 592.35 477.00 C 592.35 485.37 592.35 493.75 592.35 502.12 C 603.24 502.12 614.12 502.18 625.01 502.08 C 625.03 504.34 625.08 506.60 625.14 508.86 C 517.43 509.12 409.71 508.90 301.99 508.98 C 233.95 508.89 165.91 509.12 97.88 508.87 C 97.92 506.60 97.97 504.34 97.99 502.08 C 108.66 502.19 119.33 502.11 129.99 502.13 C 130.01 493.75 130.00 485.38 130.00 477.00 C 130.00 454.00 130.00 431.01 130.00 408.01 C 125.77 407.93 121.28 408.48 117.35 406.55 C 114.87 405.44 112.75 403.01 113.01 400.15 C 112.98 376.77 113.01 353.38 113.00 330.00 Z" fill="#231f20" opacity="1.00"/><path d=" M 154.00 330.00 C 160.67 330.00 167.33 330.00 174.00 330.00 C 173.99 352.99 174.03 375.99 173.98 398.99 C 173.89 401.12 174.18 403.49 175.97 404.93 C 179.75 408.42 185.23 408.02 190.00 408.03 C 190.00 431.02 190.00 454.01 190.00 477.00 C 172.67 477.00 155.33 477.00 138.00 477.00 C 138.00 454.01 138.00 431.02 138.00 408.03 C 142.10 407.97 146.53 408.37 150.23 406.24 C 152.47 405.07 154.23 402.76 153.99 400.12 C 154.02 376.75 153.99 353.37 154.00 330.00 Z" fill="#ffffff" opacity="1.00"/><path d=" M 215.00 330.00 C 222.00 330.00 229.00 330.00 236.00 330.00 C 235.99 353.00 236.03 376.01 235.98 399.01 C 235.97 400.92 236.04 403.07 237.53 404.48 C 241.22 408.43 247.07 408.04 252.00 408.03 C 252.00 431.02 252.00 454.01 252.00 477.00 C 234.00 477.00 216.00 477.00 198.00 477.00 C 198.00 454.00 198.00 431.01 198.00 408.01 C 202.43 407.93 207.24 408.53 211.26 406.23 C 213.52 405.05 215.23 402.70 214.99 400.07 C 215.02 376.71 214.99 353.35 215.00 330.00 Z" fill="#ffffff" opacity="1.00"/><path d=" M 277.00 330.00 C 286.33 330.00 295.67 330.00 305.00 329.99 C 305.00 379.00 305.00 428.00 305.00 477.00 C 290.00 477.00 275.00 477.00 260.00 477.00 C 260.00 454.00 260.00 431.01 260.00 408.01 C 264.63 407.94 269.74 408.56 273.82 405.88 C 275.83 404.66 277.20 402.45 276.99 400.05 C 277.02 376.70 276.99 353.35 277.00 330.00 Z" fill="#ffffff" opacity="1.00"/><path d=" M 313.00 329.99 C 321.67 330.00 330.33 330.00 339.00 330.00 C 338.98 353.00 339.03 376.00 338.97 399.00 C 338.99 401.14 338.94 403.64 340.71 405.20 C 344.71 409.11 350.74 408.53 355.88 408.55 C 355.88 431.36 355.88 454.18 355.88 477.00 C 341.59 477.00 327.29 476.99 313.00 477.00 C 313.00 428.00 313.00 379.00 313.00 329.99 Z" fill="#ffffff" opacity="1.00"/><path d=" M 380.00 330.00 C 388.00 330.00 396.00 330.00 404.00 330.00 C 404.00 353.35 404.00 376.71 404.00 400.06 C 403.89 402.18 404.48 404.44 406.30 405.74 C 410.38 409.08 415.96 408.51 420.88 408.55 C 420.88 431.36 420.88 454.18 420.88 477.00 C 402.04 477.00 383.20 477.00 364.35 477.00 C 364.36 454.19 364.35 431.38 364.36 408.57 C 368.02 408.51 371.87 408.79 375.30 407.22 C 377.74 406.18 380.08 404.00 379.96 401.14 C 380.06 377.43 379.97 353.71 380.00 330.00 Z" fill="#ffffff" opacity="1.00"/><path d=" M 445.00 330.00 C 453.67 330.00 462.33 330.00 471.00 330.00 C 471.00 379.00 471.00 428.00 471.00 477.01 C 457.12 476.99 443.23 477.00 429.35 477.00 C 429.36 454.19 429.35 431.38 429.36 408.57 C 433.24 408.52 437.38 408.80 440.94 406.91 C 443.13 405.82 445.08 403.72 444.96 401.12 C 445.06 377.42 444.97 353.71 445.00 330.00 Z" fill="#ffffff" opacity="1.00"/><path d=" M 479.00 330.00 C 487.67 330.00 496.33 330.00 505.00 330.00 C 505.00 353.34 505.00 376.69 505.00 400.04 C 504.89 402.18 505.49 404.46 507.33 405.77 C 511.41 409.08 516.97 408.51 521.88 408.55 C 521.88 431.36 521.88 454.18 521.88 477.00 C 507.59 477.00 493.29 477.00 479.00 477.00 C 479.00 428.00 479.00 379.00 479.00 330.00 Z" fill="#ffffff" opacity="1.00"/><path d=" M 546.00 330.00 C 553.00 330.00 560.00 330.00 567.00 330.00 C 566.99 353.01 567.03 376.03 566.97 399.04 C 566.99 401.17 566.95 403.65 568.71 405.20 C 572.72 409.11 578.74 408.53 583.88 408.55 C 583.88 431.36 583.88 454.18 583.88 477.00 C 566.04 477.00 548.20 477.00 530.35 477.00 C 530.36 454.19 530.35 431.38 530.36 408.57 C 534.24 408.52 538.38 408.80 541.93 406.91 C 544.15 405.82 546.10 403.68 545.96 401.07 C 546.05 377.38 545.97 353.69 546.00 330.00 Z" fill="#ffffff" opacity="1.00"/><path d=" M 608.00 330.00 C 613.67 330.00 619.33 330.00 625.00 330.00 C 624.99 378.69 625.01 427.37 625.00 476.06 C 614.21 477.82 603.23 476.68 592.35 477.00 C 592.36 454.19 592.35 431.38 592.36 408.57 C 596.24 408.52 600.39 408.80 603.95 406.90 C 606.14 405.82 608.08 403.71 607.96 401.11 C 608.06 377.41 607.97 353.70 608.00 330.00 Z" fill="#ffffff" opacity="1.00"/><path d=" M 98.00 475.42 C 108.44 478.20 119.34 476.56 130.00 477.00 C 130.00 485.38 130.01 493.75 129.99 502.13 C 119.33 502.11 108.66 502.19 97.99 502.08 C 98.01 493.19 97.99 484.31 98.00 475.42 Z" fill="#bcbdbf" opacity="1.00"/><path d=" M 592.35 477.00 C 603.23 476.68 614.21 477.82 625.00 476.06 C 625.01 484.73 624.98 493.41 625.01 502.08 C 614.12 502.18 603.24 502.12 592.35 502.12 C 592.35 493.75 592.35 485.37 592.35 477.00 Z" fill="#bcbdbf" opacity="1.00"/><path d=" M 138.00 477.00 C 155.33 477.00 172.67 477.00 190.00 477.00 C 190.00 485.38 190.01 493.75 189.99 502.13 C 172.66 502.14 155.34 502.13 138.01 502.13 C 137.99 493.75 138.00 485.38 138.00 477.00 Z" fill="#bcbdbf" opacity="1.00"/><path d=" M 198.00 477.00 C 216.00 477.00 234.00 477.00 252.00 477.00 C 252.00 485.38 252.01 493.75 251.99 502.13 C 234.00 502.14 216.00 502.13 198.01 502.13 C 197.99 493.75 198.00 485.38 198.00 477.00 Z" fill="#bcbdbf" opacity="1.00"/><path d=" M 260.00 477.00 C 275.00 477.00 290.00 477.00 305.00 477.00 C 305.00 485.38 305.01 493.75 304.99 502.13 C 290.00 502.13 275.00 502.13 260.01 502.13 C 259.99 493.75 260.00 485.38 260.00 477.00 Z" fill="#bcbdbf" opacity="1.00"/><path d=" M 313.00 477.00 C 327.29 476.99 341.59 477.00 355.88 477.00 C 355.88 485.37 355.89 493.75 355.88 502.13 C 341.58 502.10 327.30 502.15 313.01 502.13 C 312.99 493.75 313.00 485.38 313.00 477.00 Z" fill="#bcbdbf" opacity="1.00"/><path d=" M 364.35 477.00 C 383.20 477.00 402.04 477.00 420.88 477.00 C 420.88 485.38 420.89 493.75 420.88 502.13 C 402.04 502.13 383.20 502.14 364.36 502.13 C 364.35 493.75 364.35 485.37 364.35 477.00 Z" fill="#bcbdbf" opacity="1.00"/><path d=" M 429.35 477.00 C 443.23 477.00 457.12 476.99 471.00 477.01 C 471.00 485.38 471.01 493.75 470.99 502.13 C 457.11 502.13 443.23 502.14 429.36 502.12 C 429.35 493.75 429.35 485.37 429.35 477.00 Z" fill="#bcbdbf" opacity="1.00"/><path d=" M 479.00 477.00 C 493.29 477.00 507.59 477.00 521.88 477.00 C 521.87 485.38 521.89 493.75 521.88 502.13 C 507.58 502.13 493.29 502.14 479.01 502.13 C 478.99 493.75 479.00 485.38 479.00 477.00 Z" fill="#bcbdbf" opacity="1.00"/><path d=" M 530.35 477.00 C 548.20 477.00 566.04 477.00 583.88 477.00 C 583.87 485.38 583.89 493.76 583.88 502.14 C 566.04 502.09 548.20 502.16 530.36 502.13 C 530.35 493.75 530.35 485.38 530.35 477.00 Z" fill="#bcbdbf" opacity="1.00"/><path d=" M 40.08 509.93 C 44.05 515.85 48.89 521.84 55.89 524.18 C 64.38 526.62 73.31 525.86 82.03 525.97 C 268.04 525.99 454.04 525.97 640.04 525.99 C 649.07 525.88 658.31 526.62 667.12 524.15 C 674.11 521.81 678.99 515.86 682.87 509.89 C 683.46 516.79 682.54 524.00 678.87 530.00 C 673.19 539.53 662.03 545.40 650.98 545.00 C 457.64 545.00 264.30 545.00 70.95 545.00 C 61.18 545.04 51.45 540.19 45.71 532.27 C 40.91 525.92 39.38 517.74 40.08 509.93 Z" fill="#10303f" opacity="1.00"/></svg>